<svg xmlns="http://www.w3.org/2000/svg" xmlns:xlink="http://www.w3.org/1999/xlink" width="500" zoomAndPan="magnify" viewBox="0 0 375 374.999991" height="500" preserveAspectRatio="xMidYMid meet" version="1.0"><defs><g/><clipPath id="5d7fa7938c"><path d="M 108.421875 92.171875 L 266.671875 92.171875 L 266.671875 282.671875 L 108.421875 282.671875 Z M 108.421875 92.171875 " clip-rule="nonzero"/></clipPath></defs><g fill="#ffffff" fill-opacity="1"><g transform="translate(32.887741, 229.767366)"><g><path d="M 0.90625 -9.265625 C 0.8125 -7.617188 0.492188 -6.046875 -0.046875 -4.546875 C -0.585938 -3.046875 -1.238281 -1.847656 -2 -0.953125 L -5.515625 -2.796875 C -4.816406 -3.648438 -4.234375 -4.675781 -3.765625 -5.875 C -3.296875 -7.070312 -3.023438 -8.285156 -2.953125 -9.515625 C -2.867188 -10.878906 -3.007812 -11.898438 -3.375 -12.578125 C -3.738281 -13.265625 -4.257812 -13.625 -4.9375 -13.65625 C -5.4375 -13.6875 -5.859375 -13.519531 -6.203125 -13.15625 C -6.546875 -12.789062 -6.832031 -12.3125 -7.0625 -11.71875 C -7.300781 -11.125 -7.570312 -10.316406 -7.875 -9.296875 C -8.34375 -7.742188 -8.796875 -6.472656 -9.234375 -5.484375 C -9.671875 -4.503906 -10.320312 -3.675781 -11.1875 -3 C -12.0625 -2.320312 -13.191406 -2.023438 -14.578125 -2.109375 C -15.785156 -2.179688 -16.859375 -2.570312 -17.796875 -3.28125 C -18.742188 -3.988281 -19.460938 -5.015625 -19.953125 -6.359375 C -20.453125 -7.703125 -20.648438 -9.328125 -20.546875 -11.234375 C -20.460938 -12.554688 -20.222656 -13.84375 -19.828125 -15.09375 C -19.441406 -16.34375 -18.925781 -17.421875 -18.28125 -18.328125 L -14.703125 -16.640625 C -15.910156 -14.796875 -16.570312 -12.910156 -16.6875 -10.984375 C -16.757812 -9.640625 -16.59375 -8.628906 -16.1875 -7.953125 C -15.789062 -7.285156 -15.238281 -6.929688 -14.53125 -6.890625 C -13.8125 -6.847656 -13.257812 -7.1875 -12.875 -7.90625 C -12.5 -8.632812 -12.097656 -9.75 -11.671875 -11.25 C -11.203125 -12.8125 -10.75 -14.082031 -10.3125 -15.0625 C -9.875 -16.050781 -9.226562 -16.882812 -8.375 -17.5625 C -7.519531 -18.238281 -6.398438 -18.535156 -5.015625 -18.453125 C -3.835938 -18.378906 -2.773438 -17.984375 -1.828125 -17.265625 C -0.890625 -16.546875 -0.175781 -15.507812 0.3125 -14.15625 C 0.8125 -12.800781 1.007812 -11.171875 0.90625 -9.265625 Z M 0.90625 -9.265625 "/></g></g></g><g fill="#ffffff" fill-opacity="1"><g transform="translate(35.030871, 203.068804)"><g><path d="M -17.46875 -16.09375 C -17.03125 -17.882812 -16.347656 -19.363281 -15.421875 -20.53125 C -14.503906 -21.707031 -13.410156 -22.515625 -12.140625 -22.953125 C -10.867188 -23.398438 -9.484375 -23.4375 -7.984375 -23.0625 C -6.503906 -22.695312 -5.296875 -22.023438 -4.359375 -21.046875 C -3.429688 -20.066406 -2.832031 -18.84375 -2.5625 -17.375 C -2.300781 -15.914062 -2.390625 -14.289062 -2.828125 -12.5 L -3.828125 -8.4375 L 1.734375 -7.078125 L 0.59375 -2.390625 L -19.609375 -7.34375 Z M -6.703125 -13.171875 C -6.359375 -14.578125 -6.398438 -15.71875 -6.828125 -16.59375 C -7.265625 -17.476562 -8.039062 -18.054688 -9.15625 -18.328125 C -10.289062 -18.609375 -11.25 -18.457031 -12.03125 -17.875 C -12.8125 -17.289062 -13.375 -16.296875 -13.71875 -14.890625 L -14.65625 -11.09375 L -7.640625 -9.375 Z M -6.703125 -13.171875 "/></g></g></g><g fill="#ffffff" fill-opacity="1"><g transform="translate(42.632373, 174.64096)"><g><path d="M 5.6875 -11.1875 C 4.757812 -9.226562 3.503906 -7.664062 1.921875 -6.5 C 0.335938 -5.332031 -1.398438 -4.65625 -3.296875 -4.46875 C -5.191406 -4.28125 -7.0625 -4.625 -8.90625 -5.5 C -10.75 -6.375 -12.195312 -7.597656 -13.25 -9.171875 C -14.3125 -10.753906 -14.894531 -12.53125 -15 -14.5 C -15.101562 -16.46875 -14.691406 -18.429688 -13.765625 -20.390625 C -12.835938 -22.335938 -11.582031 -23.890625 -10 -25.046875 C -8.425781 -26.203125 -6.6875 -26.878906 -4.78125 -27.078125 C -2.882812 -27.285156 -1.015625 -26.953125 0.828125 -26.078125 C 2.671875 -25.203125 4.117188 -23.96875 5.171875 -22.375 C 6.222656 -20.78125 6.800781 -19.003906 6.90625 -17.046875 C 7.019531 -15.085938 6.613281 -13.132812 5.6875 -11.1875 Z M 1.96875 -12.953125 C 2.5 -14.066406 2.71875 -15.1875 2.625 -16.3125 C 2.539062 -17.445312 2.160156 -18.484375 1.484375 -19.421875 C 0.816406 -20.367188 -0.0976562 -21.117188 -1.265625 -21.671875 C -2.421875 -22.210938 -3.578125 -22.441406 -4.734375 -22.359375 C -5.890625 -22.285156 -6.929688 -21.925781 -7.859375 -21.28125 C -8.796875 -20.632812 -9.53125 -19.753906 -10.0625 -18.640625 C -10.582031 -17.523438 -10.796875 -16.394531 -10.703125 -15.25 C -10.617188 -14.113281 -10.238281 -13.070312 -9.5625 -12.125 C -8.894531 -11.1875 -7.984375 -10.445312 -6.828125 -9.90625 C -5.660156 -9.351562 -4.5 -9.113281 -3.34375 -9.1875 C -2.1875 -9.269531 -1.140625 -9.640625 -0.203125 -10.296875 C 0.722656 -10.953125 1.445312 -11.835938 1.96875 -12.953125 Z M 1.96875 -12.953125 "/></g></g></g><g fill="#ffffff" fill-opacity="1"><g transform="translate(57.466123, 145.473957)"><g><path d="M 9.421875 -12.578125 L 2.375 -12.828125 L 2.234375 -12.640625 L -0.28125 -9.296875 L 4.359375 -5.828125 L 1.484375 -1.96875 L -15.15625 -14.4375 L -9.765625 -21.640625 C -8.660156 -23.117188 -7.453125 -24.21875 -6.140625 -24.9375 C -4.835938 -25.65625 -3.515625 -25.96875 -2.171875 -25.875 C -0.835938 -25.789062 0.445312 -25.285156 1.6875 -24.359375 C 2.925781 -23.429688 3.769531 -22.332031 4.21875 -21.0625 C 4.675781 -19.800781 4.726562 -18.445312 4.375 -17 L 12.53125 -16.71875 Z M -1.234375 -20.453125 C -2.171875 -21.148438 -3.113281 -21.382812 -4.0625 -21.15625 C -5.007812 -20.9375 -5.914062 -20.25 -6.78125 -19.09375 L -9.140625 -15.953125 L -3.34375 -11.59375 L -0.984375 -14.734375 C -0.117188 -15.890625 0.28125 -16.957031 0.21875 -17.9375 C 0.164062 -18.925781 -0.316406 -19.765625 -1.234375 -20.453125 Z M -1.234375 -20.453125 "/></g></g></g><g fill="#ffffff" fill-opacity="1"><g transform="translate(75.931277, 122.268003)"><g><path d="M -6.5 -16.984375 L -11.375 -12.453125 L -14.03125 -15.34375 L -0.734375 -27.671875 L 1.921875 -24.78125 L -2.96875 -20.25 L 8.5 -7.875 L 4.96875 -4.609375 Z M -6.5 -16.984375 "/></g></g></g><g fill="#ffffff" fill-opacity="1"><g transform="translate(109.730939, 95.641218)"><g><path d="M 8.46875 -3.84375 C 6.988281 -3.101562 5.46875 -2.585938 3.90625 -2.296875 C 2.34375 -2.015625 0.976562 -1.984375 -0.1875 -2.203125 L -0.34375 -6.171875 C 0.738281 -5.992188 1.914062 -6 3.1875 -6.1875 C 4.46875 -6.382812 5.65625 -6.757812 6.75 -7.3125 C 7.96875 -7.925781 8.78125 -8.5625 9.1875 -9.21875 C 9.59375 -9.882812 9.644531 -10.519531 9.34375 -11.125 C 9.125 -11.570312 8.769531 -11.847656 8.28125 -11.953125 C 7.789062 -12.066406 7.226562 -12.078125 6.59375 -11.984375 C 5.96875 -11.890625 5.140625 -11.722656 4.109375 -11.484375 C 2.523438 -11.109375 1.195312 -10.859375 0.125 -10.734375 C -0.945312 -10.617188 -1.992188 -10.769531 -3.015625 -11.1875 C -4.035156 -11.601562 -4.859375 -12.4375 -5.484375 -13.6875 C -6.023438 -14.757812 -6.222656 -15.878906 -6.078125 -17.046875 C -5.941406 -18.210938 -5.410156 -19.347656 -4.484375 -20.453125 C -3.566406 -21.566406 -2.253906 -22.550781 -0.546875 -23.40625 C 0.628906 -24 1.851562 -24.4375 3.125 -24.71875 C 4.40625 -25.007812 5.601562 -25.101562 6.71875 -25 L 7.046875 -21.0625 C 4.835938 -21.175781 2.875 -20.800781 1.15625 -19.9375 C -0.0390625 -19.332031 -0.832031 -18.6875 -1.21875 -18 C -1.601562 -17.320312 -1.632812 -16.664062 -1.3125 -16.03125 C -0.988281 -15.394531 -0.414062 -15.09375 0.40625 -15.125 C 1.226562 -15.15625 2.390625 -15.351562 3.890625 -15.71875 C 5.484375 -16.101562 6.8125 -16.351562 7.875 -16.46875 C 8.945312 -16.59375 9.988281 -16.453125 11 -16.046875 C 12.007812 -15.640625 12.828125 -14.816406 13.453125 -13.578125 C 13.984375 -12.523438 14.175781 -11.410156 14.03125 -10.234375 C 13.882812 -9.054688 13.34375 -7.910156 12.40625 -6.796875 C 11.476562 -5.691406 10.164062 -4.707031 8.46875 -3.84375 Z M 8.46875 -3.84375 "/></g></g></g><g fill="#ffffff" fill-opacity="1"><g transform="translate(134.029717, 84.209123)"><g><path d="M 1.59375 -18.125 L -4.765625 -16.1875 L -5.90625 -19.9375 L 11.4375 -25.1875 L 12.578125 -21.4375 L 6.203125 -19.515625 L 11.09375 -3.359375 L 6.484375 -1.96875 Z M 1.59375 -18.125 "/></g></g></g><g fill="#ffffff" fill-opacity="1"><g transform="translate(159.159514, 77.038291)"><g><path d="M 12.515625 -0.9375 C 10.359375 -0.707031 8.367188 -0.96875 6.546875 -1.71875 C 4.734375 -2.46875 3.253906 -3.601562 2.109375 -5.125 C 0.972656 -6.65625 0.296875 -8.4375 0.078125 -10.46875 C -0.128906 -12.5 0.164062 -14.375 0.96875 -16.09375 C 1.78125 -17.820312 3 -19.238281 4.625 -20.34375 C 6.25 -21.445312 8.140625 -22.113281 10.296875 -22.34375 C 12.441406 -22.5625 14.421875 -22.296875 16.234375 -21.546875 C 18.046875 -20.796875 19.523438 -19.660156 20.671875 -18.140625 C 21.828125 -16.617188 22.507812 -14.84375 22.71875 -12.8125 C 22.9375 -10.78125 22.632812 -8.898438 21.8125 -7.171875 C 21 -5.441406 19.78125 -4.023438 18.15625 -2.921875 C 16.539062 -1.816406 14.660156 -1.15625 12.515625 -0.9375 Z M 12.09375 -5.03125 C 13.3125 -5.15625 14.382812 -5.546875 15.3125 -6.203125 C 16.238281 -6.867188 16.925781 -7.734375 17.375 -8.796875 C 17.832031 -9.859375 17.992188 -11.03125 17.859375 -12.3125 C 17.734375 -13.59375 17.335938 -14.707031 16.671875 -15.65625 C 16.015625 -16.601562 15.160156 -17.304688 14.109375 -17.765625 C 13.066406 -18.222656 11.9375 -18.390625 10.71875 -18.265625 C 9.488281 -18.140625 8.410156 -17.742188 7.484375 -17.078125 C 6.566406 -16.410156 5.878906 -15.546875 5.421875 -14.484375 C 4.960938 -13.421875 4.796875 -12.25 4.921875 -10.96875 C 5.054688 -9.6875 5.457031 -8.570312 6.125 -7.625 C 6.789062 -6.675781 7.644531 -5.972656 8.6875 -5.515625 C 9.726562 -5.066406 10.863281 -4.90625 12.09375 -5.03125 Z M 12.09375 -5.03125 "/></g></g></g><g fill="#ffffff" fill-opacity="1"><g transform="translate(191.794431, 74.591517)"><g><path d="M 15.640625 1.53125 L 12.203125 -4.625 L 11.96875 -4.640625 L 7.8125 -5.046875 L 7.25 0.71875 L 2.453125 0.234375 L 4.484375 -20.46875 L 13.4375 -19.578125 C 15.28125 -19.398438 16.847656 -18.9375 18.140625 -18.1875 C 19.429688 -17.4375 20.382812 -16.46875 21 -15.28125 C 21.625 -14.09375 21.859375 -12.726562 21.703125 -11.1875 C 21.546875 -9.65625 21.039062 -8.367188 20.1875 -7.328125 C 19.34375 -6.285156 18.210938 -5.53125 16.796875 -5.0625 L 20.796875 2.046875 Z M 16.84375 -11.65625 C 16.957031 -12.820312 16.671875 -13.75 15.984375 -14.4375 C 15.304688 -15.132812 14.25 -15.554688 12.8125 -15.703125 L 8.90625 -16.078125 L 8.1875 -8.859375 L 12.09375 -8.484375 C 13.53125 -8.335938 14.648438 -8.539062 15.453125 -9.09375 C 16.265625 -9.65625 16.726562 -10.507812 16.84375 -11.65625 Z M 16.84375 -11.65625 "/></g></g></g><g fill="#ffffff" fill-opacity="1"><g transform="translate(221.181706, 78.296185)"><g><path d="M 18.921875 1.5 L 17.84375 5.203125 L 2.375 0.6875 L 8.1875 -19.28125 L 23.28125 -14.875 L 22.203125 -11.171875 L 11.6875 -14.234375 L 10.421875 -9.890625 L 19.703125 -7.1875 L 18.65625 -3.59375 L 9.375 -6.296875 L 8.03125 -1.671875 Z M 18.921875 1.5 "/></g></g></g><g fill="#ffffff" fill-opacity="1"><g transform="translate(247.811082, 87.09691)"><g/></g></g><g fill="#ffffff" fill-opacity="1"><g transform="translate(262.794983, 94.05128)"><g><path d="M 10.203125 7.078125 C 8.429688 5.921875 7.078125 4.488281 6.140625 2.78125 C 5.203125 1.070312 4.769531 -0.734375 4.84375 -2.640625 C 4.925781 -4.546875 5.53125 -6.363281 6.65625 -8.09375 C 7.78125 -9.820312 9.195312 -11.097656 10.90625 -11.921875 C 12.613281 -12.753906 14.441406 -13.085938 16.390625 -12.921875 C 18.335938 -12.753906 20.207031 -12.085938 22 -10.921875 C 23.5 -9.929688 24.6875 -8.769531 25.5625 -7.4375 C 26.4375 -6.113281 26.960938 -4.679688 27.140625 -3.140625 L 23 -2.453125 C 22.71875 -4.585938 21.703125 -6.222656 19.953125 -7.359375 C 18.878906 -8.066406 17.765625 -8.457031 16.609375 -8.53125 C 15.453125 -8.601562 14.359375 -8.367188 13.328125 -7.828125 C 12.296875 -7.296875 11.429688 -6.492188 10.734375 -5.421875 C 10.023438 -4.335938 9.632812 -3.21875 9.5625 -2.0625 C 9.488281 -0.90625 9.71875 0.179688 10.25 1.203125 C 10.789062 2.222656 11.597656 3.085938 12.671875 3.796875 C 14.421875 4.929688 16.332031 5.195312 18.40625 4.59375 L 19.421875 8.671875 C 17.941406 9.140625 16.410156 9.238281 14.828125 8.96875 C 13.253906 8.695312 11.710938 8.066406 10.203125 7.078125 Z M 10.203125 7.078125 "/></g></g></g><g fill="#ffffff" fill-opacity="1"><g transform="translate(287.103446, 110.874761)"><g><path d="M 16.09375 10.0625 L 13.421875 12.84375 L 1.78125 1.703125 L 16.15625 -13.328125 L 27.515625 -2.453125 L 24.84375 0.34375 L 16.9375 -7.21875 L 13.828125 -3.953125 L 20.8125 2.71875 L 18.21875 5.421875 L 11.234375 -1.25 L 7.90625 2.234375 Z M 16.09375 10.0625 "/></g></g></g><g fill="#ffffff" fill-opacity="1"><g transform="translate(306.723596, 130.405669)"><g><path d="M 29.421875 5.59375 L 12.4375 17.59375 L 10.15625 14.375 L 14.484375 -1.390625 L 4.171875 5.890625 L 1.421875 2.015625 L 18.40625 -9.984375 L 20.703125 -6.734375 L 16.359375 9 L 26.671875 1.71875 Z M 29.421875 5.59375 "/></g></g></g><g fill="#ffffff" fill-opacity="1"><g transform="translate(324.235987, 156.902613)"><g><path d="M 18.171875 -0.828125 L 15.40625 -6.890625 L 18.96875 -8.515625 L 26.5 7.984375 L 22.9375 9.609375 L 20.171875 3.546875 L 4.8125 10.546875 L 2.8125 6.171875 Z M 18.171875 -0.828125 "/></g></g></g><g fill="#ffffff" fill-opacity="1"><g transform="translate(334.549203, 181.036613)"><g><path d="M 8.375 17.015625 L 4.640625 17.984375 L 0.625 2.390625 L 20.765625 -2.8125 L 24.6875 12.40625 L 20.953125 13.375 L 18.21875 2.78125 L 13.84375 3.90625 L 16.265625 13.265625 L 12.625 14.203125 L 10.203125 4.84375 L 5.546875 6.046875 Z M 8.375 17.015625 "/></g></g></g><g fill="#ffffff" fill-opacity="1"><g transform="translate(340.87914, 208.026375)"><g><path d="M 1.0625 15.6875 L 6.5625 11.28125 L 6.546875 11.046875 L 6.265625 6.875 L 0.484375 7.265625 L 0.171875 2.46875 L 20.921875 1.078125 L 21.515625 10.046875 C 21.640625 11.890625 21.441406 13.503906 20.921875 14.890625 C 20.398438 16.285156 19.601562 17.382812 18.53125 18.1875 C 17.457031 19 16.144531 19.457031 14.59375 19.5625 C 13.050781 19.664062 11.695312 19.382812 10.53125 18.71875 C 9.375 18.050781 8.453125 17.054688 7.765625 15.734375 L 1.40625 20.84375 Z M 14.265625 14.703125 C 15.441406 14.617188 16.316406 14.179688 16.890625 13.390625 C 17.460938 12.597656 17.695312 11.476562 17.59375 10.03125 L 17.328125 6.125 L 10.09375 6.625 L 10.359375 10.53125 C 10.460938 11.976562 10.851562 13.050781 11.53125 13.75 C 12.207031 14.457031 13.117188 14.773438 14.265625 14.703125 Z M 14.265625 14.703125 "/></g></g></g><g clip-path="url(#5d7fa7938c)"><path fill="#ffffff" d="M 150.382812 230.917969 C 146.167969 228.113281 141.695312 222.523438 141.328125 219.542969 C 158.464844 229.277344 177.183594 236.507812 199.117188 234.695312 C 208.496094 227.746094 210.550781 218.097656 210.507812 210.179688 C 207.308594 206.941406 203.332031 201.417969 202.640625 195.761719 C 213.46875 180.394531 218.980469 171.460938 220.234375 155.363281 C 233.480469 151.671875 246.664062 146.101562 256.128906 135.117188 C 257.75 117.3125 246.402344 101.753906 235.167969 93.917969 C 229.980469 92.128906 224.359375 91.546875 219.347656 92.949219 C 217.574219 96.636719 216.949219 100.371094 218.71875 105.269531 C 223.105469 106.175781 227.796875 106.394531 231.75 103.847656 C 235.445312 109.304688 236.636719 116.621094 236.441406 124.113281 C 224.769531 123.140625 211.4375 125.816406 202.664062 133.714844 C 197.777344 131.96875 195.574219 127.714844 196.308594 122.386719 C 201.558594 115.890625 199.183594 103.890625 192.570312 100.394531 C 185.050781 99.3125 177.464844 101.40625 172.320312 106.78125 C 169.574219 115.328125 170.675781 124.585938 172.96875 133.21875 C 176.492188 133.457031 179.429688 132.527344 182.457031 130.175781 C 180.597656 135.507812 173.917969 138.828125 167.433594 139.089844 C 162.097656 132.894531 150.015625 128.75 140.875 129.398438 C 141.480469 121.609375 143.015625 113.902344 148.265625 108.226562 C 151.679688 110.578125 155.136719 111.636719 158.703125 111.960938 C 160.910156 110.644531 162.25 108.207031 163.265625 105.917969 C 161.578125 101.96875 158.789062 98.949219 155.03125 97.070312 C 136.164062 101.625 122.894531 121.089844 120.386719 137.859375 C 127.777344 147.679688 140.3125 153.871094 154.273438 157.453125 C 156.152344 169.972656 159.160156 181.753906 166.851562 194.660156 C 149.953125 191.101562 128.167969 192.632812 112.109375 200.164062 C 121.207031 221.832031 131.148438 244.753906 132.121094 268.058594 C 123.652344 271.082031 116.085938 273.691406 108.671875 278.828125 C 108.976562 280.210938 109.6875 281.460938 110.898438 282.691406 L 151.746094 282.691406 C 152.003906 276.5625 150.902344 273.28125 147.273438 268.578125 C 143.902344 255.457031 145.910156 243.175781 150.40625 230.941406 Z M 234.0625 260.875 C 231.925781 262.535156 229.804688 264.867188 228.597656 267.433594 C 217.941406 268.167969 205.515625 265.945312 195.703125 259.835938 C 197.605469 254.117188 199.203125 247.320312 198.578125 240.5 C 190.257812 241.710938 175.84375 240.976562 165.167969 236.355469 C 162.488281 252.585938 163.222656 266.65625 170.460938 282.648438 L 262.871094 282.648438 C 264.386719 281.679688 265.574219 280.382812 266.394531 278.957031 C 256.972656 275.183594 242.730469 267.757812 234.0625 260.851562 Z M 234.0625 260.875 " fill-opacity="1" fill-rule="evenodd"/></g></svg>